# xmcd
#
# Track frame offsets: 
#        182
#        23815
#        41705
#        54540
#        74957
#        97175
#        107727
#        116172
#        129340
#        145860
#        156212
#        180402
#        198967
#        210827
#
# Disc length: 3048 seconds
#
# Revision: 4
# Processed by: cddbd v1.5.2PL0 Copyright (c) Steve Scherf et al.
# Submitted via: ExactAudioCopyFreeDBPlugin 1.0
#
DISCID=cb0be60e
DTITLE=Various Artist - Black&White
DYEAR=1992
DGENRE=Blues
TTITLE0=Muddy Waters - Mannish Boy
TTITLE1=Albert King - Going Back To Iuka
TTITLE2=Earth, Wind and Fire - Shining Star
TTITLE3=Santana - É Papa Ré
TTITLE4=B. B. King - The Thrill Is Gone
TTITLE5=The Commitments - In The Midnight Hour
TTITLE6=Otis Redding - Respect
TTITLE7=The Commitments - Chain Of Fools
TTITLE8=Earth, Wind and Fire - Magic Mind
TTITLE9=Muddy Waters - I Want To Be Loved
TTITLE10=Albert King - Like A Road Leading Home
TTITLE11=B. B. King - Guess Who
TTITLE12=Otis Redding - The Dock Of The Bay
TTITLE13=Muddy Waters - I´m Your Hoochie Coochie Man
EXTD=
EXTT0=
EXTT1=
EXTT2=
EXTT3=
EXTT4=
EXTT5=
EXTT6=
EXTT7=
EXTT8=
EXTT9=
EXTT10=
EXTT11=
EXTT12=
EXTT13=
PLAYORDER=
